<?xml version="1.0" standalone="no"?>
<!DOCTYPE svg PUBLIC "-//W3C//DTD SVG 20010904//EN"
 "http://www.w3.org/TR/2001/REC-SVG-20010904/DTD/svg10.dtd">
<svg version="1.0" xmlns="http://www.w3.org/2000/svg"
 width="500.000000pt" height="500.000000pt" viewBox="0 0 500.000000 500.000000"
 preserveAspectRatio="xMidYMid meet">

<g transform="translate(0.000000,500.000000) scale(0.100000,-0.100000)"
fill="#000000" stroke="none">
<path d="M2190 3760 c-310 -30 -624 -179 -853 -405 -395 -391 -530 -971 -346
-1492 170 -481 558 -815 1080 -929 116 -26 417 -26 538 -1 943 194 1435 1208
999 2060 -196 382 -566 662 -986 746 -114 23 -312 33 -432 21z m858 -530 c7
-12 24 -25 37 -30 17 -6 27 -22 35 -51 15 -55 1 -159 -21 -159 -4 0 -25 -11
-45 -25 -40 -27 -73 -31 -106 -14 -27 14 -90 -3 -133 -37 -97 -76 -103 -83
-110 -147 -7 -54 -12 -64 -52 -103 -44 -44 -46 -44 -116 -44 l-72 0 -102 -105
-103 -104 6 -45 c5 -34 2 -56 -14 -90 -29 -61 -54 -76 -128 -76 -69 0 -94 6
-94 24 0 6 -9 17 -19 23 -13 8 -22 29 -27 58 -7 48 -35 85 -65 85 -9 0 -22 7
-29 14 -25 31 -76 39 -137 21 -62 -18 -102 -15 -149 14 -64 39 -65 167 -2 223
27 24 40 28 89 28 51 0 63 -4 94 -31 25 -22 37 -43 41 -70 7 -40 37 -89 55
-89 5 0 23 -10 38 -21 32 -23 61 -25 195 -15 49 3 85 11 96 21 9 8 22 15 28
15 7 0 12 4 12 9 0 10 129 141 140 141 11 0 29 73 24 100 -9 41 28 106 77 140
51 34 79 37 120 13 24 -14 33 -15 47 -5 9 7 27 16 40 22 12 5 25 17 28 25 4 8
12 15 19 15 7 0 33 16 57 36 36 30 44 44 50 83 15 102 17 106 53 125 19 11 35
25 35 33 0 9 14 13 48 13 37 0 50 -5 60 -20z m82 -1121 c4 -452 8 -579 18
-592 7 -8 35 -21 62 -27 38 -9 50 -16 50 -31 0 -10 -4 -19 -10 -19 -5 0 -10
-7 -10 -15 0 -13 -106 -15 -890 -15 -877 0 -890 0 -910 20 -32 32 -25 49 22
56 23 4 52 17 65 30 23 23 23 24 23 310 0 253 2 290 17 306 14 15 32 18 128
18 79 0 116 -4 123 -13 7 -8 12 -119 14 -309 3 -337 2 -333 79 -333 66 0 69
11 69 216 0 98 4 189 10 203 9 26 10 26 127 26 115 0 118 -1 140 -27 22 -25
23 -33 23 -209 0 -153 3 -185 16 -198 19 -20 64 -21 90 -2 18 14 19 33 24 431
4 355 7 417 20 425 8 6 71 9 140 8 l125 -3 6 -30 c4 -16 7 -209 8 -427 1 -292
4 -399 13 -404 6 -4 32 -7 56 -7 32 0 49 5 58 18 11 15 14 121 14 566 0 300 3
561 6 578 l7 32 131 -3 131 -3 5 -576z"/>
<path d="M2945 3130 c-20 -38 -19 -52 6 -84 26 -33 62 -34 83 -1 19 29 20 55
4 90 -9 19 -19 25 -44 25 -27 0 -37 -6 -49 -30z"/>
<path d="M2517 2810 c-32 -36 -33 -44 -6 -81 23 -33 57 -38 87 -11 36 30 37
59 3 92 -37 38 -51 38 -84 0z"/>
<path d="M1647 2603 c-17 -29 -16 -72 1 -93 18 -22 24 -23 58 -15 36 9 39 13
42 48 2 21 -2 45 -9 53 -12 14 -84 20 -92 7z"/>
<path d="M2078 2379 c-18 -10 -25 -63 -10 -85 11 -17 68 -27 90 -15 28 15 37
69 16 93 -19 20 -68 24 -96 7z"/>
<path d="M2948 2609 c-17 -9 -18 -46 -18 -548 0 -508 1 -539 18 -554 23 -21
62 -22 88 -3 18 14 19 33 22 548 l3 533 -22 18 c-24 19 -65 22 -91 6z"/>
<path d="M2500 2270 c-20 -20 -21 -29 -18 -380 3 -398 1 -385 69 -396 22 -4
41 0 54 9 19 15 20 29 23 387 2 271 0 376 -9 386 -18 22 -95 18 -119 -6z"/>
<path d="M1642 2058 c-9 -9 -12 -84 -12 -274 0 -291 1 -294 64 -294 59 0 61 8
64 279 4 291 2 301 -61 301 -24 0 -48 -5 -55 -12z"/>
<path d="M2074 1849 c-16 -18 -20 -40 -22 -143 -5 -151 7 -202 46 -211 36 -7
78 8 91 34 6 11 11 79 11 156 0 134 0 136 -26 160 -33 31 -75 32 -100 4z"/>
</g>
</svg>
